<svg width="19" height="18" viewBox="0 0 19 18" fill="none" xmlns="http://www.w3.org/2000/svg">
<path d="M9.09521 0C4.12721 0 0.0952148 4.032 0.0952148 9C0.0952148 13.968 4.12721 18 9.09521 18C14.0632 18 18.0952 13.968 18.0952 9C18.0952 4.032 14.0632 0 9.09521 0ZM13.2712 6.12C13.1362 7.542 12.5512 10.998 12.2542 12.591C12.1282 13.266 11.8762 13.491 11.6422 13.518C11.1202 13.563 10.7242 13.176 10.2202 12.843C9.42822 12.321 8.97822 11.997 8.21321 11.493C7.32222 10.908 7.89821 10.584 8.41121 10.062C8.54621 9.927 10.8502 7.83 10.8952 7.641C10.9015 7.61237 10.9006 7.58265 10.8928 7.55442C10.8849 7.52619 10.8703 7.5003 10.8502 7.479C10.7962 7.434 10.7242 7.452 10.6612 7.461C10.5802 7.479 9.32022 8.316 6.86321 9.972C6.50322 10.215 6.17921 10.341 5.89121 10.332C5.56721 10.323 4.95521 10.152 4.49621 9.999C3.92921 9.819 3.48821 9.72 3.52421 9.405C3.54221 9.243 3.76722 9.081 4.19022 8.91C6.81821 7.767 8.56421 7.011 9.43721 6.651C11.9392 5.607 12.4522 5.427 12.7942 5.427C12.8662 5.427 13.0372 5.445 13.1452 5.535C13.2352 5.607 13.2622 5.706 13.2712 5.778C13.2622 5.832 13.2802 5.994 13.2712 6.12Z" fill="#F9F9F9"/>
</svg>
