<svg width="21" height="21" viewBox="0 0 21 21" fill="none" xmlns="http://www.w3.org/2000/svg">
<path d="M6.11611 11.2308H18.0732C18.2445 11.2331 18.411 11.1739 18.5424 11.0639C18.6738 10.954 18.7615 10.8006 18.7894 10.6315L19.9881 4.78538C20.0073 4.68025 20.0032 4.57217 19.9762 4.46877C19.9491 4.36538 19.8997 4.26917 19.8314 4.18695C19.7631 4.10473 19.6776 4.03849 19.5809 3.99289C19.4842 3.9473 19.3787 3.92347 19.2718 3.92308H4.65436M6.11611 11.2308L4.65436 3.92308M6.11611 11.2308L6.73004 14.3C6.76374 14.4651 6.85344 14.6134 6.98396 14.7199C7.11448 14.8265 7.27781 14.8846 7.44629 14.8846H16.3483M4.65436 3.92308L4.04043 1.58462C4.00673 1.41955 3.91703 1.2712 3.78651 1.16467C3.65599 1.05814 3.49266 0.999966 3.32417 1H1M15.6174 20C15.4236 20 15.2377 19.923 15.1006 19.786C14.9636 19.6489 14.8866 19.463 14.8866 19.2692C14.8866 19.0754 14.9636 18.8895 15.1006 18.7525C15.2377 18.6155 15.4236 18.5385 15.6174 18.5385C15.8113 18.5385 15.9972 18.6155 16.1343 18.7525C16.2713 18.8895 16.3483 19.0754 16.3483 19.2692C16.3483 19.463 16.2713 19.6489 16.1343 19.786C15.9972 19.923 15.8113 20 15.6174 20ZM8.30872 20C8.11488 20 7.92898 19.923 7.79192 19.786C7.65485 19.6489 7.57785 19.463 7.57785 19.2692C7.57785 19.0754 7.65485 18.8895 7.79192 18.7525C7.92898 18.6155 8.11488 18.5385 8.30872 18.5385C8.50256 18.5385 8.68846 18.6155 8.82553 18.7525C8.96259 18.8895 9.03959 19.0754 9.03959 19.2692C9.03959 19.463 8.96259 19.6489 8.82553 19.786C8.68846 19.923 8.50256 20 8.30872 20Z" stroke="#3475C9" stroke-linecap="round" stroke-linejoin="round"/>
</svg>
