<svg width="21" height="19" viewBox="0 0 21 19" fill="none" xmlns="http://www.w3.org/2000/svg">
<path d="M18.4172 10.8252L12.1101 17.3271C11.6919 17.758 11.1249 18 10.5336 18C9.94234 18 9.37527 17.758 8.95712 17.3271L2.65005 10.8264C2.12869 10.2937 1.71453 9.66008 1.43137 8.96197C1.14821 8.26386 1.00162 7.51498 1.00001 6.75833C0.998406 6.00167 1.14181 5.25214 1.42201 4.55276C1.7022 3.85338 2.11365 3.21793 2.63275 2.68289C3.15185 2.14785 3.76837 1.72376 4.44691 1.43496C5.12546 1.14617 5.85266 0.998357 6.58677 1.00001C7.32089 1.00167 8.04746 1.15276 8.72477 1.44462C9.40208 1.73648 10.0168 2.16334 10.5336 2.70072C11.5834 1.64566 12.9942 1.05935 14.4604 1.06882C15.9266 1.07829 17.3301 1.68277 18.367 2.75131C19.4038 3.81985 19.9905 5.26642 19.9999 6.77764C20.0093 8.28886 19.4406 9.74306 18.4172 10.8252Z" stroke="#3475C9" stroke-linecap="round" stroke-linejoin="round"/>
</svg>
