<svg version="1.1" xmlns="http://www.w3.org/2000/svg" xmlns:xlink="http://www.w3.org/1999/xlink" x="0px" y="0px"
	 viewBox="0 0 18.1 18.1" style="enable-background:new 0 0 18.1 18.1;" xml:space="preserve">
	<path d="M16.2,1.8C14.8,0.4,12.7,0,9.1,0H9C5.4,0,3.3,0.4,1.9,1.8C0.3,3.3,0,5.4,0,9v0.1c0,3.6,0.3,5.7,1.9,7.2
		c1.5,1.4,3.6,1.8,7.2,1.8h0.1c3.6,0,5.7-0.4,7.2-1.8c1.5-1.5,1.9-3.6,1.9-7.2V9C18.1,5.4,17.7,3.3,16.2,1.8z M15.8,8.8V9
		c0,0.1-0.1,0.1-0.1,0.1c-2.5,0.1-4,0.4-5,1.5c-1.1,1.1-1.4,2.6-1.5,5c0,0.1-0.1,0.1-0.1,0.1H8.7c-0.1,0-0.1-0.1-0.1-0.1
		c-0.1-2.5-0.4-4-1.5-5c-1.1-1.1-2.6-1.4-5-1.5C2.1,9.2,2,9.1,2,9V8.8c0-0.1,0.1-0.1,0.1-0.1c2.5-0.1,4-0.4,5-1.5
		c1.1-1.1,1.4-2.6,1.5-5C8.6,2.1,8.7,2,8.7,2H9c0.1,0,0.1,0.1,0.1,0.1c0.1,2.5,0.4,4,1.5,5c1.1,1.1,2.6,1.4,5,1.5
		C15.7,8.6,15.8,8.7,15.8,8.8L15.8,8.8z" fill="#F9F9F9"/>
</svg>
