<svg width="19" height="19" viewBox="0 0 19 19" fill="none" xmlns="http://www.w3.org/2000/svg">
<path fill-rule="evenodd" clip-rule="evenodd" d="M9.04762 0C4.05062 0 0 4.05062 0 9.04762C0 10.7576 0.475 12.359 1.30105 13.7234L0.494 16.4667C0.447662 16.6242 0.444613 16.7912 0.485173 16.9503C0.525734 17.1094 0.608405 17.2547 0.724497 17.3707C0.840588 17.4868 0.985812 17.5695 1.1449 17.6101C1.30399 17.6506 1.47107 17.6476 1.62857 17.6012L4.37181 16.7942C5.7821 17.6473 7.39936 18.0973 9.04762 18.0952C14.0446 18.0952 18.0952 14.0446 18.0952 9.04762C18.0952 4.05062 14.0446 0 9.04762 0ZM7.00105 11.0951C8.83138 12.9245 10.5785 13.1661 11.1955 13.1887C12.1338 13.2231 13.0476 12.5065 13.4031 11.675C13.4477 11.5715 13.4637 11.458 13.4497 11.3462C13.4357 11.2344 13.3922 11.1284 13.3235 11.039C12.8277 10.4057 12.1573 9.95057 11.5022 9.49819C11.3655 9.4034 11.1974 9.36533 11.0332 9.392C10.869 9.41866 10.7216 9.50797 10.6219 9.64114L10.079 10.469C10.0504 10.5133 10.0059 10.5451 9.95465 10.5579C9.90341 10.5706 9.84923 10.5635 9.80309 10.5378C9.43486 10.327 8.89833 9.96867 8.51291 9.58324C8.12748 9.19781 7.7909 8.68571 7.60181 8.341C7.57893 8.29708 7.57247 8.24644 7.58358 8.19818C7.59469 8.14992 7.62265 8.10721 7.66243 8.07771L8.49843 7.45705C8.61808 7.35354 8.69533 7.20951 8.71536 7.05257C8.7354 6.89563 8.69681 6.73682 8.607 6.60657C8.20167 6.01305 7.72938 5.25848 7.04448 4.75814C6.9559 4.6945 6.85238 4.65481 6.74396 4.64292C6.63554 4.63104 6.52588 4.64735 6.42562 4.69029C5.59324 5.04676 4.87305 5.96057 4.90743 6.90062C4.93005 7.51767 5.17162 9.26476 7.00105 11.0951Z" fill="#F9F9F9"/>
</svg>
