<svg version="1.1" xmlns="http://www.w3.org/2000/svg" xmlns:xlink="http://www.w3.org/1999/xlink" x="0px" y="0px"
	 viewBox="0 0 18 18" style="enable-background:new 0 0 18 18;" xml:space="preserve">Ы
	<path d="M10.3,8.3H5.8V10h4.5c0.3,0,0.4,0,0.5-0.1C10.9,9.8,11,9.6,11,9.4V8.9c0-0.2-0.1-0.3-0.1-0.4
		C10.8,8.4,10.6,8.3,10.3,8.3z" fill="#F9F9F9"/>
	<path d="M14,0H4C1.8,0,0,1.8,0,4v10c0,2.2,1.8,4,4,4h10c2.2,0,4-1.8,4-4V4C18,1.8,16.2,0,14,0z M11,13.8l-1.6-2.3H5.8
		v2.3H4v-7h6.6c0.4,0,0.7,0,1,0.1c0.3,0.1,0.5,0.2,0.7,0.4c0.2,0.2,0.3,0.4,0.4,0.6c0.1,0.2,0.1,0.6,0.1,1v0.5
		c0,0.7-0.1,1.2-0.4,1.5c-0.2,0.3-0.6,0.5-1.2,0.6l1.8,2.3H11z M13.8,6.8c-0.8,0-1.4-0.6-1.4-1.4S13,4,13.8,4c0.8,0,1.4,0.6,1.4,1.4
		S14.5,6.8,13.8,6.8z" fill="#F9F9F9"/>
</svg>
